<svg id="visual" viewBox="0 0 960 540" width="960" height="540" xmlns="http://www.w3.org/2000/svg" xmlns:xlink="http://www.w3.org/1999/xlink" version="1.1"><rect x="0" y="0" width="960" height="540" fill="#1E1E1E"></rect><defs><linearGradient id="grad1_0" x1="43.8%" y1="100%" x2="100%" y2="0%"><stop offset="14.444444444444446%" stop-color="#0066ff" stop-opacity="1"></stop><stop offset="85.55555555555554%" stop-color="#0066ff" stop-opacity="1"></stop></linearGradient></defs><defs><linearGradient id="grad1_1" x1="43.8%" y1="100%" x2="100%" y2="0%"><stop offset="14.444444444444446%" stop-color="#0066ff" stop-opacity="1"></stop><stop offset="85.55555555555554%" stop-color="#324086" stop-opacity="1"></stop></linearGradient></defs><defs><linearGradient id="grad1_2" x1="43.8%" y1="100%" x2="100%" y2="0%"><stop offset="14.444444444444446%" stop-color="#1e1e1e" stop-opacity="1"></stop><stop offset="85.55555555555554%" stop-color="#324086" stop-opacity="1"></stop></linearGradient></defs><defs><linearGradient id="grad2_0" x1="0%" y1="100%" x2="56.3%" y2="0%"><stop offset="14.444444444444446%" stop-color="#0066ff" stop-opacity="1"></stop><stop offset="85.55555555555554%" stop-color="#0066ff" stop-opacity="1"></stop></linearGradient></defs><defs><linearGradient id="grad2_1" x1="0%" y1="100%" x2="56.3%" y2="0%"><stop offset="14.444444444444446%" stop-color="#324086" stop-opacity="1"></stop><stop offset="85.55555555555554%" stop-color="#0066ff" stop-opacity="1"></stop></linearGradient></defs><defs><linearGradient id="grad2_2" x1="0%" y1="100%" x2="56.3%" y2="0%"><stop offset="14.444444444444446%" stop-color="#324086" stop-opacity="1"></stop><stop offset="85.55555555555554%" stop-color="#1e1e1e" stop-opacity="1"></stop></linearGradient></defs><g transform="translate(960, 540)"><path d="M-297 0C-298.6 -27 -300.3 -53.9 -284 -76.1C-267.7 -98.2 -233.4 -115.6 -199.2 -115C-164.9 -114.4 -130.7 -95.9 -129.4 -129.4C-128.1 -162.9 -159.7 -248.3 -148.5 -257.2C-137.3 -266.1 -83.4 -198.4 -51.5 -192.2C-19.6 -186.1 -9.8 -241.5 0 -297L0 0Z" fill="#2c2e4f"></path><path d="M-198 0C-199.1 -18 -200.2 -36 -189.3 -50.7C-178.5 -65.5 -155.6 -77.1 -132.8 -76.7C-110 -76.3 -87.1 -63.9 -86.3 -86.3C-85.4 -108.6 -106.4 -165.6 -99 -171.5C-91.6 -177.4 -55.6 -132.2 -34.3 -128.1C-13.1 -124.1 -6.5 -161 0 -198L0 0Z" fill="#2d53c1"></path><path d="M-99 0C-99.5 -9 -100.1 -18 -94.7 -25.4C-89.2 -32.7 -77.8 -38.5 -66.4 -38.3C-55 -38.1 -43.6 -32 -43.1 -43.1C-42.7 -54.3 -53.2 -82.8 -49.5 -85.7C-45.8 -88.7 -27.8 -66.1 -17.2 -64.1C-6.5 -62 -3.3 -80.5 0 -99L0 0Z" fill="#0066ff"></path></g><g transform="translate(0, 0)"><path d="M297 0C255.5 14.5 214 29.1 214.4 57.5C214.9 85.8 257.3 128 253.7 146.5C250.2 165 200.7 159.9 178.9 178.9C157.1 197.9 163 241.1 148.5 257.2C134 273.4 99.1 262.5 70.9 264.7C42.8 266.8 21.4 281.9 0 297L0 0Z" fill="#2c2e4f"></path><path d="M198 0C170.3 9.7 142.7 19.4 143 38.3C143.3 57.2 171.5 85.3 169.2 97.7C166.8 110 133.8 106.6 119.3 119.3C104.7 131.9 108.7 160.7 99 171.5C89.3 182.2 66 175 47.3 176.4C28.5 177.9 14.3 187.9 0 198L0 0Z" fill="#2d53c1"></path><path d="M99 0C85.2 4.8 71.3 9.7 71.5 19.2C71.6 28.6 85.8 42.7 84.6 48.8C83.4 55 66.9 53.3 59.6 59.6C52.4 66 54.3 80.4 49.5 85.7C44.7 91.1 33 87.5 23.6 88.2C14.3 88.9 7.1 94 0 99L0 0Z" fill="#0066ff"></path></g></svg>