<svg id="visual" viewBox="0 0 540 960" width="540" height="960" xmlns="http://www.w3.org/2000/svg" xmlns:xlink="http://www.w3.org/1999/xlink" version="1.1"><rect x="0" y="0" width="540" height="960" fill="#1E1E1E"></rect><defs><linearGradient id="grad1_0" x1="0%" y1="100%" x2="100%" y2="0%"><stop offset="30%" stop-color="#0066ff" stop-opacity="1"></stop><stop offset="70%" stop-color="#0066ff" stop-opacity="1"></stop></linearGradient></defs><defs><linearGradient id="grad1_1" x1="0%" y1="100%" x2="100%" y2="0%"><stop offset="30%" stop-color="#0066ff" stop-opacity="1"></stop><stop offset="70%" stop-color="#324086" stop-opacity="1"></stop></linearGradient></defs><defs><linearGradient id="grad1_2" x1="0%" y1="100%" x2="100%" y2="0%"><stop offset="30%" stop-color="#1e1e1e" stop-opacity="1"></stop><stop offset="70%" stop-color="#324086" stop-opacity="1"></stop></linearGradient></defs><defs><linearGradient id="grad2_0" x1="0%" y1="100%" x2="100%" y2="0%"><stop offset="30%" stop-color="#0066ff" stop-opacity="1"></stop><stop offset="70%" stop-color="#0066ff" stop-opacity="1"></stop></linearGradient></defs><defs><linearGradient id="grad2_1" x1="0%" y1="100%" x2="100%" y2="0%"><stop offset="30%" stop-color="#324086" stop-opacity="1"></stop><stop offset="70%" stop-color="#0066ff" stop-opacity="1"></stop></linearGradient></defs><defs><linearGradient id="grad2_2" x1="0%" y1="100%" x2="100%" y2="0%"><stop offset="30%" stop-color="#324086" stop-opacity="1"></stop><stop offset="70%" stop-color="#1e1e1e" stop-opacity="1"></stop></linearGradient></defs><g transform="translate(540, 960)"><path d="M-297 0C-281.8 -24.9 -266.6 -49.7 -244.4 -65.5C-222.2 -81.2 -193 -87.8 -186.2 -107.5C-179.4 -127.2 -195 -159.9 -194.5 -194.5C-193.9 -229 -177.2 -265.2 -148.5 -257.2C-119.8 -249.2 -79.3 -196.8 -52.5 -196.1C-25.8 -195.3 -12.9 -246.2 0 -297L0 0Z" fill="#2c2e4f"></path><path d="M-198 0C-187.9 -16.6 -177.7 -33.2 -162.9 -43.7C-148.1 -54.1 -128.7 -58.5 -124.1 -71.7C-119.6 -84.8 -130 -106.6 -129.6 -129.6C-129.3 -152.6 -118.1 -176.8 -99 -171.5C-79.9 -166.1 -52.9 -131.2 -35 -130.7C-17.2 -130.2 -8.6 -164.1 0 -198L0 0Z" fill="#2d53c1"></path><path d="M-99 0C-93.9 -8.3 -88.9 -16.6 -81.5 -21.8C-74.1 -27.1 -64.3 -29.3 -62.1 -35.8C-59.8 -42.4 -65 -53.3 -64.8 -64.8C-64.6 -76.3 -59.1 -88.4 -49.5 -85.7C-39.9 -83.1 -26.4 -65.6 -17.5 -65.4C-8.6 -65.1 -4.3 -82.1 0 -99L0 0Z" fill="#0066ff"></path></g><g transform="translate(0, 0)"><path d="M297 0C288.4 29.4 279.8 58.8 246.3 66C212.8 73.2 154.5 58.1 155.9 90C157.3 121.9 218.4 200.9 210 210C201.7 219.2 123.9 158.5 93 161.1C62.1 163.7 78.1 229.5 70.4 262.7C62.7 295.9 31.4 296.5 0 297L0 0Z" fill="#2c2e4f"></path><path d="M198 0C192.3 19.6 186.5 39.2 164.2 44C141.9 48.8 103 38.7 103.9 60C104.8 81.3 145.6 133.9 140 140C134.4 146.1 82.6 105.7 62 107.4C41.4 109.1 52.1 153 46.9 175.2C41.8 197.3 20.9 197.6 0 198L0 0Z" fill="#2d53c1"></path><path d="M99 0C96.1 9.8 93.3 19.6 82.1 22C70.9 24.4 51.5 19.4 52 30C52.4 40.6 72.8 67 70 70C67.2 73.1 41.3 52.8 31 53.7C20.7 54.6 26 76.5 23.5 87.6C20.9 98.6 10.5 98.8 0 99L0 0Z" fill="#0066ff"></path></g></svg>